<?xml version="1.0" encoding="utf-8" standalone="no"?>
<!DOCTYPE svg PUBLIC "-//W3C//DTD SVG 1.1//EN"
  "http://www.w3.org/Graphics/SVG/1.1/DTD/svg11.dtd">
<svg xmlns:xlink="http://www.w3.org/1999/xlink" width="432pt" height="230.4pt" viewBox="0 0 432 230.4" xmlns="http://www.w3.org/2000/svg" version="1.1">
 <metadata>
  <rdf:RDF xmlns:dc="http://purl.org/dc/elements/1.1/" xmlns:cc="http://creativecommons.org/ns#" xmlns:rdf="http://www.w3.org/1999/02/22-rdf-syntax-ns#">
   <cc:Work>
    <dc:type rdf:resource="http://purl.org/dc/dcmitype/StillImage"/>
    <dc:date>2025-03-23T17:44:58.709257</dc:date>
    <dc:format>image/svg+xml</dc:format>
    <dc:creator>
     <cc:Agent>
      <dc:title>Matplotlib v3.7.5, https://matplotlib.org/</dc:title>
     </cc:Agent>
    </dc:creator>
   </cc:Work>
  </rdf:RDF>
 </metadata>
 <defs>
  <style type="text/css">*{stroke-linejoin: round; stroke-linecap: butt}</style>
 </defs>
 <g id="figure_1">
  <g id="patch_1">
   <path d="M 0 230.4 
L 432 230.4 
L 432 0 
L 0 0 
z
" style="fill: #ffffff"/>
  </g>
  <g id="axes_1">
   <g id="patch_2">
    <path d="M 62.04 194.46 
L 422.28 194.46 
L 422.28 9.72 
L 62.04 9.72 
z
" style="fill: #ffffff"/>
   </g>
   <g id="matplotlib.axis_1">
    <g id="xtick_1">
     <g id="line2d_1">
      <path d="M 78.414545 194.46 
L 78.414545 9.72 
" clip-path="url(#pf77613d259)" style="fill: none; stroke: #b0b0b0; stroke-width: 0.8; stroke-linecap: square"/>
     </g>
     <g id="line2d_2">
      <defs>
       <path id="mbeb36d2000" d="M 0 0 
L 0 -3.5 
" style="stroke: #000000; stroke-width: 0.8"/>
      </defs>
      <g>
       <use xlink:href="#mbeb36d2000" x="78.414545" y="194.46" style="stroke: #000000; stroke-width: 0.8"/>
      </g>
     </g>
     <g id="text_1">
      <text style="font: 9px 'DejaVu Sans', sans-serif; text-anchor: middle" x="78.414545" y="204.798594" transform="rotate(-0 78.414545 204.798594)">4000</text>
     </g>
    </g>
    <g id="xtick_2">
     <g id="line2d_3">
      <path d="M 143.912727 194.46 
L 143.912727 9.72 
" clip-path="url(#pf77613d259)" style="fill: none; stroke: #b0b0b0; stroke-width: 0.8; stroke-linecap: square"/>
     </g>
     <g id="line2d_4">
      <g>
       <use xlink:href="#mbeb36d2000" x="143.912727" y="194.46" style="stroke: #000000; stroke-width: 0.8"/>
      </g>
     </g>
     <g id="text_2">
      <text style="font: 9px 'DejaVu Sans', sans-serif; text-anchor: middle" x="143.912727" y="204.798594" transform="rotate(-0 143.912727 204.798594)">5000</text>
     </g>
    </g>
    <g id="xtick_3">
     <g id="line2d_5">
      <path d="M 209.410909 194.46 
L 209.410909 9.72 
" clip-path="url(#pf77613d259)" style="fill: none; stroke: #b0b0b0; stroke-width: 0.8; stroke-linecap: square"/>
     </g>
     <g id="line2d_6">
      <g>
       <use xlink:href="#mbeb36d2000" x="209.410909" y="194.46" style="stroke: #000000; stroke-width: 0.8"/>
      </g>
     </g>
     <g id="text_3">
      <text style="font: 9px 'DejaVu Sans', sans-serif; text-anchor: middle" x="209.410909" y="204.798594" transform="rotate(-0 209.410909 204.798594)">6000</text>
     </g>
    </g>
    <g id="xtick_4">
     <g id="line2d_7">
      <path d="M 274.909091 194.46 
L 274.909091 9.72 
" clip-path="url(#pf77613d259)" style="fill: none; stroke: #b0b0b0; stroke-width: 0.8; stroke-linecap: square"/>
     </g>
     <g id="line2d_8">
      <g>
       <use xlink:href="#mbeb36d2000" x="274.909091" y="194.46" style="stroke: #000000; stroke-width: 0.8"/>
      </g>
     </g>
     <g id="text_4">
      <text style="font: 9px 'DejaVu Sans', sans-serif; text-anchor: middle" x="274.909091" y="204.798594" transform="rotate(-0 274.909091 204.798594)">7000</text>
     </g>
    </g>
    <g id="xtick_5">
     <g id="line2d_9">
      <path d="M 340.407273 194.46 
L 340.407273 9.72 
" clip-path="url(#pf77613d259)" style="fill: none; stroke: #b0b0b0; stroke-width: 0.8; stroke-linecap: square"/>
     </g>
     <g id="line2d_10">
      <g>
       <use xlink:href="#mbeb36d2000" x="340.407273" y="194.46" style="stroke: #000000; stroke-width: 0.8"/>
      </g>
     </g>
     <g id="text_5">
      <text style="font: 9px 'DejaVu Sans', sans-serif; text-anchor: middle" x="340.407273" y="204.798594" transform="rotate(-0 340.407273 204.798594)">8000</text>
     </g>
    </g>
    <g id="xtick_6">
     <g id="line2d_11">
      <path d="M 405.905455 194.46 
L 405.905455 9.72 
" clip-path="url(#pf77613d259)" style="fill: none; stroke: #b0b0b0; stroke-width: 0.8; stroke-linecap: square"/>
     </g>
     <g id="line2d_12">
      <g>
       <use xlink:href="#mbeb36d2000" x="405.905455" y="194.46" style="stroke: #000000; stroke-width: 0.8"/>
      </g>
     </g>
     <g id="text_6">
      <text style="font: 9px 'DejaVu Sans', sans-serif; text-anchor: middle" x="405.905455" y="204.798594" transform="rotate(-0 405.905455 204.798594)">9000</text>
     </g>
    </g>
    <g id="text_7">
     <text style="font: 9px 'DejaVu Sans', sans-serif; text-anchor: middle" x="242.16" y="217.508906" transform="rotate(-0 242.16 217.508906)">Number of Connections</text>
    </g>
   </g>
   <g id="matplotlib.axis_2">
    <g id="ytick_1">
     <g id="line2d_13">
      <path d="M 62.04 194.46 
L 422.28 194.46 
" clip-path="url(#pf77613d259)" style="fill: none; stroke: #b0b0b0; stroke-width: 0.8; stroke-linecap: square"/>
     </g>
     <g id="line2d_14">
      <defs>
       <path id="mbbfce588b2" d="M 0 0 
L 3.5 0 
" style="stroke: #000000; stroke-width: 0.8"/>
      </defs>
      <g>
       <use xlink:href="#mbbfce588b2" x="62.04" y="194.46" style="stroke: #000000; stroke-width: 0.8"/>
      </g>
     </g>
     <g id="text_8">
      <text style="font: 8px 'DejaVu Sans', sans-serif; text-anchor: end" x="58.54" y="197.499375" transform="rotate(-0 58.54 197.499375)">0.0001%</text>
     </g>
    </g>
    <g id="ytick_2">
     <g id="line2d_15">
      <path d="M 62.04 149.277852 
L 422.28 149.277852 
" clip-path="url(#pf77613d259)" style="fill: none; stroke: #b0b0b0; stroke-width: 0.8; stroke-linecap: square"/>
     </g>
     <g id="line2d_16">
      <g>
       <use xlink:href="#mbbfce588b2" x="62.04" y="149.277852" style="stroke: #000000; stroke-width: 0.8"/>
      </g>
     </g>
     <g id="text_9">
      <text style="font: 8px 'DejaVu Sans', sans-serif; text-anchor: end" x="58.54" y="152.317227" transform="rotate(-0 58.54 152.317227)">0.0010%</text>
     </g>
    </g>
    <g id="ytick_3">
     <g id="line2d_17">
      <path d="M 62.04 104.095705 
L 422.28 104.095705 
" clip-path="url(#pf77613d259)" style="fill: none; stroke: #b0b0b0; stroke-width: 0.8; stroke-linecap: square"/>
     </g>
     <g id="line2d_18">
      <g>
       <use xlink:href="#mbbfce588b2" x="62.04" y="104.095705" style="stroke: #000000; stroke-width: 0.8"/>
      </g>
     </g>
     <g id="text_10">
      <text style="font: 8px 'DejaVu Sans', sans-serif; text-anchor: end" x="58.54" y="107.13508" transform="rotate(-0 58.54 107.13508)">0.0100%</text>
     </g>
    </g>
    <g id="ytick_4">
     <g id="line2d_19">
      <path d="M 62.04 58.913557 
L 422.28 58.913557 
" clip-path="url(#pf77613d259)" style="fill: none; stroke: #b0b0b0; stroke-width: 0.8; stroke-linecap: square"/>
     </g>
     <g id="line2d_20">
      <g>
       <use xlink:href="#mbbfce588b2" x="62.04" y="58.913557" style="stroke: #000000; stroke-width: 0.8"/>
      </g>
     </g>
     <g id="text_11">
      <text style="font: 8px 'DejaVu Sans', sans-serif; text-anchor: end" x="58.54" y="61.952932" transform="rotate(-0 58.54 61.952932)">0.1000%</text>
     </g>
    </g>
    <g id="ytick_5">
     <g id="line2d_21">
      <path d="M 62.04 13.731409 
L 422.28 13.731409 
" clip-path="url(#pf77613d259)" style="fill: none; stroke: #b0b0b0; stroke-width: 0.8; stroke-linecap: square"/>
     </g>
     <g id="line2d_22">
      <g>
       <use xlink:href="#mbbfce588b2" x="62.04" y="13.731409" style="stroke: #000000; stroke-width: 0.8"/>
      </g>
     </g>
     <g id="text_12">
      <text style="font: 8px 'DejaVu Sans', sans-serif; text-anchor: end" x="58.54" y="16.770784" transform="rotate(-0 58.54 16.770784)">1.0000%</text>
     </g>
    </g>
    <g id="ytick_6">
     <g id="line2d_23">
      <defs>
       <path id="m5a6ae0516c" d="M 0 0 
L 2 0 
" style="stroke: #000000; stroke-width: 0.6"/>
      </defs>
      <g>
       <use xlink:href="#m5a6ae0516c" x="62.04" y="180.858818" style="stroke: #000000; stroke-width: 0.6"/>
      </g>
     </g>
    </g>
    <g id="ytick_7">
     <g id="line2d_24">
      <g>
       <use xlink:href="#m5a6ae0516c" x="62.04" y="172.902637" style="stroke: #000000; stroke-width: 0.6"/>
      </g>
     </g>
    </g>
    <g id="ytick_8">
     <g id="line2d_25">
      <g>
       <use xlink:href="#m5a6ae0516c" x="62.04" y="167.257637" style="stroke: #000000; stroke-width: 0.6"/>
      </g>
     </g>
    </g>
    <g id="ytick_9">
     <g id="line2d_26">
      <g>
       <use xlink:href="#m5a6ae0516c" x="62.04" y="162.879034" style="stroke: #000000; stroke-width: 0.6"/>
      </g>
     </g>
    </g>
    <g id="ytick_10">
     <g id="line2d_27">
      <g>
       <use xlink:href="#m5a6ae0516c" x="62.04" y="159.301455" style="stroke: #000000; stroke-width: 0.6"/>
      </g>
     </g>
    </g>
    <g id="ytick_11">
     <g id="line2d_28">
      <g>
       <use xlink:href="#m5a6ae0516c" x="62.04" y="156.276656" style="stroke: #000000; stroke-width: 0.6"/>
      </g>
     </g>
    </g>
    <g id="ytick_12">
     <g id="line2d_29">
      <g>
       <use xlink:href="#m5a6ae0516c" x="62.04" y="153.656455" style="stroke: #000000; stroke-width: 0.6"/>
      </g>
     </g>
    </g>
    <g id="ytick_13">
     <g id="line2d_30">
      <g>
       <use xlink:href="#m5a6ae0516c" x="62.04" y="151.345274" style="stroke: #000000; stroke-width: 0.6"/>
      </g>
     </g>
    </g>
    <g id="ytick_14">
     <g id="line2d_31">
      <g>
       <use xlink:href="#m5a6ae0516c" x="62.04" y="135.676671" style="stroke: #000000; stroke-width: 0.6"/>
      </g>
     </g>
    </g>
    <g id="ytick_15">
     <g id="line2d_32">
      <g>
       <use xlink:href="#m5a6ae0516c" x="62.04" y="127.720489" style="stroke: #000000; stroke-width: 0.6"/>
      </g>
     </g>
    </g>
    <g id="ytick_16">
     <g id="line2d_33">
      <g>
       <use xlink:href="#m5a6ae0516c" x="62.04" y="122.075489" style="stroke: #000000; stroke-width: 0.6"/>
      </g>
     </g>
    </g>
    <g id="ytick_17">
     <g id="line2d_34">
      <g>
       <use xlink:href="#m5a6ae0516c" x="62.04" y="117.696886" style="stroke: #000000; stroke-width: 0.6"/>
      </g>
     </g>
    </g>
    <g id="ytick_18">
     <g id="line2d_35">
      <g>
       <use xlink:href="#m5a6ae0516c" x="62.04" y="114.119308" style="stroke: #000000; stroke-width: 0.6"/>
      </g>
     </g>
    </g>
    <g id="ytick_19">
     <g id="line2d_36">
      <g>
       <use xlink:href="#m5a6ae0516c" x="62.04" y="111.094508" style="stroke: #000000; stroke-width: 0.6"/>
      </g>
     </g>
    </g>
    <g id="ytick_20">
     <g id="line2d_37">
      <g>
       <use xlink:href="#m5a6ae0516c" x="62.04" y="108.474307" style="stroke: #000000; stroke-width: 0.6"/>
      </g>
     </g>
    </g>
    <g id="ytick_21">
     <g id="line2d_38">
      <g>
       <use xlink:href="#m5a6ae0516c" x="62.04" y="106.163126" style="stroke: #000000; stroke-width: 0.6"/>
      </g>
     </g>
    </g>
    <g id="ytick_22">
     <g id="line2d_39">
      <g>
       <use xlink:href="#m5a6ae0516c" x="62.04" y="90.494523" style="stroke: #000000; stroke-width: 0.6"/>
      </g>
     </g>
    </g>
    <g id="ytick_23">
     <g id="line2d_40">
      <g>
       <use xlink:href="#m5a6ae0516c" x="62.04" y="82.538342" style="stroke: #000000; stroke-width: 0.6"/>
      </g>
     </g>
    </g>
    <g id="ytick_24">
     <g id="line2d_41">
      <g>
       <use xlink:href="#m5a6ae0516c" x="62.04" y="76.893341" style="stroke: #000000; stroke-width: 0.6"/>
      </g>
     </g>
    </g>
    <g id="ytick_25">
     <g id="line2d_42">
      <g>
       <use xlink:href="#m5a6ae0516c" x="62.04" y="72.514739" style="stroke: #000000; stroke-width: 0.6"/>
      </g>
     </g>
    </g>
    <g id="ytick_26">
     <g id="line2d_43">
      <g>
       <use xlink:href="#m5a6ae0516c" x="62.04" y="68.93716" style="stroke: #000000; stroke-width: 0.6"/>
      </g>
     </g>
    </g>
    <g id="ytick_27">
     <g id="line2d_44">
      <g>
       <use xlink:href="#m5a6ae0516c" x="62.04" y="65.91236" style="stroke: #000000; stroke-width: 0.6"/>
      </g>
     </g>
    </g>
    <g id="ytick_28">
     <g id="line2d_45">
      <g>
       <use xlink:href="#m5a6ae0516c" x="62.04" y="63.29216" style="stroke: #000000; stroke-width: 0.6"/>
      </g>
     </g>
    </g>
    <g id="ytick_29">
     <g id="line2d_46">
      <g>
       <use xlink:href="#m5a6ae0516c" x="62.04" y="60.980979" style="stroke: #000000; stroke-width: 0.6"/>
      </g>
     </g>
    </g>
    <g id="ytick_30">
     <g id="line2d_47">
      <g>
       <use xlink:href="#m5a6ae0516c" x="62.04" y="45.312375" style="stroke: #000000; stroke-width: 0.6"/>
      </g>
     </g>
    </g>
    <g id="ytick_31">
     <g id="line2d_48">
      <g>
       <use xlink:href="#m5a6ae0516c" x="62.04" y="37.356194" style="stroke: #000000; stroke-width: 0.6"/>
      </g>
     </g>
    </g>
    <g id="ytick_32">
     <g id="line2d_49">
      <g>
       <use xlink:href="#m5a6ae0516c" x="62.04" y="31.711194" style="stroke: #000000; stroke-width: 0.6"/>
      </g>
     </g>
    </g>
    <g id="ytick_33">
     <g id="line2d_50">
      <g>
       <use xlink:href="#m5a6ae0516c" x="62.04" y="27.332591" style="stroke: #000000; stroke-width: 0.6"/>
      </g>
     </g>
    </g>
    <g id="ytick_34">
     <g id="line2d_51">
      <g>
       <use xlink:href="#m5a6ae0516c" x="62.04" y="23.755012" style="stroke: #000000; stroke-width: 0.6"/>
      </g>
     </g>
    </g>
    <g id="ytick_35">
     <g id="line2d_52">
      <g>
       <use xlink:href="#m5a6ae0516c" x="62.04" y="20.730213" style="stroke: #000000; stroke-width: 0.6"/>
      </g>
     </g>
    </g>
    <g id="ytick_36">
     <g id="line2d_53">
      <g>
       <use xlink:href="#m5a6ae0516c" x="62.04" y="18.110012" style="stroke: #000000; stroke-width: 0.6"/>
      </g>
     </g>
    </g>
    <g id="ytick_37">
     <g id="line2d_54">
      <g>
       <use xlink:href="#m5a6ae0516c" x="62.04" y="15.798831" style="stroke: #000000; stroke-width: 0.6"/>
      </g>
     </g>
    </g>
    <g id="text_13">
     <text style="font: 9px 'DejaVu Sans', sans-serif; text-anchor: middle" x="17.074531" y="102.09" transform="rotate(-90 17.074531 102.09)">False Positive Rate</text>
    </g>
   </g>
   <g id="line2d_55">
    <path d="M 78.414545 159.031873 
L 84.964364 153.306394 
L 91.514182 147.773147 
L 98.064 142.609709 
L 104.613818 137.614794 
L 111.163636 132.824464 
L 117.713455 128.313451 
L 124.263273 123.936332 
L 130.813091 119.717706 
L 137.362909 115.760429 
L 143.912727 111.913059 
L 150.462545 108.171286 
L 157.012364 104.631985 
L 163.562182 101.243837 
L 170.112 97.94317 
L 176.661818 94.726385 
L 183.211636 91.667584 
L 189.761455 88.754249 
L 196.311273 85.910727 
L 202.861091 83.13427 
L 209.410909 80.422845 
L 215.960727 77.868002 
L 222.510545 75.412549 
L 229.060364 73.011131 
L 235.610182 70.661982 
L 242.16 68.363403 
L 248.709818 66.113791 
L 255.259636 64.027884 
L 261.809455 61.992409 
L 268.359273 59.997745 
L 274.909091 58.042708 
L 281.458909 56.126104 
L 288.008727 54.246981 
L 294.558545 52.403903 
L 301.108364 50.705091 
L 307.658182 49.041196 
L 314.208 47.407397 
L 320.757818 45.803134 
L 327.307636 44.227401 
L 333.857455 42.679596 
L 340.407273 41.158911 
L 346.957091 39.664702 
L 353.506909 38.232308 
L 360.056727 36.888904 
L 366.606545 35.567377 
L 373.156364 34.267362 
L 379.706182 32.988217 
L 386.256 31.729456 
L 392.805818 30.49064 
L 399.355636 29.271321 
L 405.905455 28.070964 
" clip-path="url(#pf77613d259)" style="fill: none; stroke: #1f77b4; stroke-width: 1.2; stroke-linecap: square"/>
    <defs>
     <path id="m329820e898" d="M 0 2 
C 0.530406 2 1.03916 1.789267 1.414214 1.414214 
C 1.789267 1.03916 2 0.530406 2 0 
C 2 -0.530406 1.789267 -1.03916 1.414214 -1.414214 
C 1.03916 -1.789267 0.530406 -2 0 -2 
C -0.530406 -2 -1.03916 -1.789267 -1.414214 -1.414214 
C -1.789267 -1.03916 -2 -0.530406 -2 0 
C -2 0.530406 -1.789267 1.03916 -1.414214 1.414214 
C -1.03916 1.789267 -0.530406 2 0 2 
z
" style="stroke: #1f77b4"/>
    </defs>
    <g clip-path="url(#pf77613d259)">
     <use xlink:href="#m329820e898" x="78.414545" y="159.031873" style="fill: #1f77b4; stroke: #1f77b4"/>
     <use xlink:href="#m329820e898" x="84.964364" y="153.306394" style="fill: #1f77b4; stroke: #1f77b4"/>
     <use xlink:href="#m329820e898" x="91.514182" y="147.773147" style="fill: #1f77b4; stroke: #1f77b4"/>
     <use xlink:href="#m329820e898" x="98.064" y="142.609709" style="fill: #1f77b4; stroke: #1f77b4"/>
     <use xlink:href="#m329820e898" x="104.613818" y="137.614794" style="fill: #1f77b4; stroke: #1f77b4"/>
     <use xlink:href="#m329820e898" x="111.163636" y="132.824464" style="fill: #1f77b4; stroke: #1f77b4"/>
     <use xlink:href="#m329820e898" x="117.713455" y="128.313451" style="fill: #1f77b4; stroke: #1f77b4"/>
     <use xlink:href="#m329820e898" x="124.263273" y="123.936332" style="fill: #1f77b4; stroke: #1f77b4"/>
     <use xlink:href="#m329820e898" x="130.813091" y="119.717706" style="fill: #1f77b4; stroke: #1f77b4"/>
     <use xlink:href="#m329820e898" x="137.362909" y="115.760429" style="fill: #1f77b4; stroke: #1f77b4"/>
     <use xlink:href="#m329820e898" x="143.912727" y="111.913059" style="fill: #1f77b4; stroke: #1f77b4"/>
     <use xlink:href="#m329820e898" x="150.462545" y="108.171286" style="fill: #1f77b4; stroke: #1f77b4"/>
     <use xlink:href="#m329820e898" x="157.012364" y="104.631985" style="fill: #1f77b4; stroke: #1f77b4"/>
     <use xlink:href="#m329820e898" x="163.562182" y="101.243837" style="fill: #1f77b4; stroke: #1f77b4"/>
     <use xlink:href="#m329820e898" x="170.112" y="97.94317" style="fill: #1f77b4; stroke: #1f77b4"/>
     <use xlink:href="#m329820e898" x="176.661818" y="94.726385" style="fill: #1f77b4; stroke: #1f77b4"/>
     <use xlink:href="#m329820e898" x="183.211636" y="91.667584" style="fill: #1f77b4; stroke: #1f77b4"/>
     <use xlink:href="#m329820e898" x="189.761455" y="88.754249" style="fill: #1f77b4; stroke: #1f77b4"/>
     <use xlink:href="#m329820e898" x="196.311273" y="85.910727" style="fill: #1f77b4; stroke: #1f77b4"/>
     <use xlink:href="#m329820e898" x="202.861091" y="83.13427" style="fill: #1f77b4; stroke: #1f77b4"/>
     <use xlink:href="#m329820e898" x="209.410909" y="80.422845" style="fill: #1f77b4; stroke: #1f77b4"/>
     <use xlink:href="#m329820e898" x="215.960727" y="77.868002" style="fill: #1f77b4; stroke: #1f77b4"/>
     <use xlink:href="#m329820e898" x="222.510545" y="75.412549" style="fill: #1f77b4; stroke: #1f77b4"/>
     <use xlink:href="#m329820e898" x="229.060364" y="73.011131" style="fill: #1f77b4; stroke: #1f77b4"/>
     <use xlink:href="#m329820e898" x="235.610182" y="70.661982" style="fill: #1f77b4; stroke: #1f77b4"/>
     <use xlink:href="#m329820e898" x="242.16" y="68.363403" style="fill: #1f77b4; stroke: #1f77b4"/>
     <use xlink:href="#m329820e898" x="248.709818" y="66.113791" style="fill: #1f77b4; stroke: #1f77b4"/>
     <use xlink:href="#m329820e898" x="255.259636" y="64.027884" style="fill: #1f77b4; stroke: #1f77b4"/>
     <use xlink:href="#m329820e898" x="261.809455" y="61.992409" style="fill: #1f77b4; stroke: #1f77b4"/>
     <use xlink:href="#m329820e898" x="268.359273" y="59.997745" style="fill: #1f77b4; stroke: #1f77b4"/>
     <use xlink:href="#m329820e898" x="274.909091" y="58.042708" style="fill: #1f77b4; stroke: #1f77b4"/>
     <use xlink:href="#m329820e898" x="281.458909" y="56.126104" style="fill: #1f77b4; stroke: #1f77b4"/>
     <use xlink:href="#m329820e898" x="288.008727" y="54.246981" style="fill: #1f77b4; stroke: #1f77b4"/>
     <use xlink:href="#m329820e898" x="294.558545" y="52.403903" style="fill: #1f77b4; stroke: #1f77b4"/>
     <use xlink:href="#m329820e898" x="301.108364" y="50.705091" style="fill: #1f77b4; stroke: #1f77b4"/>
     <use xlink:href="#m329820e898" x="307.658182" y="49.041196" style="fill: #1f77b4; stroke: #1f77b4"/>
     <use xlink:href="#m329820e898" x="314.208" y="47.407397" style="fill: #1f77b4; stroke: #1f77b4"/>
     <use xlink:href="#m329820e898" x="320.757818" y="45.803134" style="fill: #1f77b4; stroke: #1f77b4"/>
     <use xlink:href="#m329820e898" x="327.307636" y="44.227401" style="fill: #1f77b4; stroke: #1f77b4"/>
     <use xlink:href="#m329820e898" x="333.857455" y="42.679596" style="fill: #1f77b4; stroke: #1f77b4"/>
     <use xlink:href="#m329820e898" x="340.407273" y="41.158911" style="fill: #1f77b4; stroke: #1f77b4"/>
     <use xlink:href="#m329820e898" x="346.957091" y="39.664702" style="fill: #1f77b4; stroke: #1f77b4"/>
     <use xlink:href="#m329820e898" x="353.506909" y="38.232308" style="fill: #1f77b4; stroke: #1f77b4"/>
     <use xlink:href="#m329820e898" x="360.056727" y="36.888904" style="fill: #1f77b4; stroke: #1f77b4"/>
     <use xlink:href="#m329820e898" x="366.606545" y="35.567377" style="fill: #1f77b4; stroke: #1f77b4"/>
     <use xlink:href="#m329820e898" x="373.156364" y="34.267362" style="fill: #1f77b4; stroke: #1f77b4"/>
     <use xlink:href="#m329820e898" x="379.706182" y="32.988217" style="fill: #1f77b4; stroke: #1f77b4"/>
     <use xlink:href="#m329820e898" x="386.256" y="31.729456" style="fill: #1f77b4; stroke: #1f77b4"/>
     <use xlink:href="#m329820e898" x="392.805818" y="30.49064" style="fill: #1f77b4; stroke: #1f77b4"/>
     <use xlink:href="#m329820e898" x="399.355636" y="29.271321" style="fill: #1f77b4; stroke: #1f77b4"/>
     <use xlink:href="#m329820e898" x="405.905455" y="28.070964" style="fill: #1f77b4; stroke: #1f77b4"/>
    </g>
   </g>
   <g id="line2d_56">
    <path d="M 78.414545 195.674141 
L 84.964364 195.674141 
L 91.514182 181.88598 
L 98.064 181.88598 
L 104.613818 168.305486 
L 111.163636 168.305486 
L 117.713455 154.588218 
L 124.263273 154.588218 
L 130.813091 141.141971 
L 137.362909 141.141971 
L 143.912727 141.141971 
L 150.462545 127.541437 
L 157.012364 127.542085 
L 163.562182 113.876195 
L 170.112 113.875872 
L 176.661818 113.876195 
L 183.211636 100.251608 
L 189.761455 100.252576 
L 196.311273 100.252415 
L 202.861091 100.252738 
L 209.410909 86.663336 
L 215.960727 86.662368 
L 222.510545 86.662529 
L 229.060364 86.66269 
L 235.610182 73.056425 
L 242.16 73.056102 
L 248.709818 73.056183 
L 255.259636 73.056586 
L 261.809455 59.386136 
L 268.359273 59.386598 
L 274.909091 59.385754 
L 281.458909 59.385935 
L 288.008727 59.386056 
L 294.558545 59.385613 
L 301.108364 45.803637 
L 307.658182 45.803435 
L 314.208 45.803938 
L 320.757818 45.803737 
L 327.307636 45.803737 
L 333.857455 45.803536 
L 340.407273 32.224499 
L 346.957091 32.2247 
L 353.506909 32.224247 
L 360.056727 32.224499 
L 366.606545 32.224952 
L 373.156364 32.224347 
L 379.706182 32.224398 
L 386.256 18.575939 
L 392.805818 18.574959 
L 399.355636 18.575939 
L 405.905455 18.575261 
" clip-path="url(#pf77613d259)" style="fill: none; stroke: #ff7f0e; stroke-width: 1.2; stroke-linecap: square"/>
    <defs>
     <path id="m6c1343b012" d="M 0 2 
C 0.530406 2 1.03916 1.789267 1.414214 1.414214 
C 1.789267 1.03916 2 0.530406 2 0 
C 2 -0.530406 1.789267 -1.03916 1.414214 -1.414214 
C 1.03916 -1.789267 0.530406 -2 0 -2 
C -0.530406 -2 -1.03916 -1.789267 -1.414214 -1.414214 
C -1.789267 -1.03916 -2 -0.530406 -2 0 
C -2 0.530406 -1.789267 1.03916 -1.414214 1.414214 
C -1.03916 1.789267 -0.530406 2 0 2 
z
" style="stroke: #ff7f0e"/>
    </defs>
    <g clip-path="url(#pf77613d259)">
     <use xlink:href="#m6c1343b012" x="78.414545" y="195.674141" style="fill: #ff7f0e; stroke: #ff7f0e"/>
     <use xlink:href="#m6c1343b012" x="84.964364" y="195.674141" style="fill: #ff7f0e; stroke: #ff7f0e"/>
     <use xlink:href="#m6c1343b012" x="91.514182" y="181.88598" style="fill: #ff7f0e; stroke: #ff7f0e"/>
     <use xlink:href="#m6c1343b012" x="98.064" y="181.88598" style="fill: #ff7f0e; stroke: #ff7f0e"/>
     <use xlink:href="#m6c1343b012" x="104.613818" y="168.305486" style="fill: #ff7f0e; stroke: #ff7f0e"/>
     <use xlink:href="#m6c1343b012" x="111.163636" y="168.305486" style="fill: #ff7f0e; stroke: #ff7f0e"/>
     <use xlink:href="#m6c1343b012" x="117.713455" y="154.588218" style="fill: #ff7f0e; stroke: #ff7f0e"/>
     <use xlink:href="#m6c1343b012" x="124.263273" y="154.588218" style="fill: #ff7f0e; stroke: #ff7f0e"/>
     <use xlink:href="#m6c1343b012" x="130.813091" y="141.141971" style="fill: #ff7f0e; stroke: #ff7f0e"/>
     <use xlink:href="#m6c1343b012" x="137.362909" y="141.141971" style="fill: #ff7f0e; stroke: #ff7f0e"/>
     <use xlink:href="#m6c1343b012" x="143.912727" y="141.141971" style="fill: #ff7f0e; stroke: #ff7f0e"/>
     <use xlink:href="#m6c1343b012" x="150.462545" y="127.541437" style="fill: #ff7f0e; stroke: #ff7f0e"/>
     <use xlink:href="#m6c1343b012" x="157.012364" y="127.542085" style="fill: #ff7f0e; stroke: #ff7f0e"/>
     <use xlink:href="#m6c1343b012" x="163.562182" y="113.876195" style="fill: #ff7f0e; stroke: #ff7f0e"/>
     <use xlink:href="#m6c1343b012" x="170.112" y="113.875872" style="fill: #ff7f0e; stroke: #ff7f0e"/>
     <use xlink:href="#m6c1343b012" x="176.661818" y="113.876195" style="fill: #ff7f0e; stroke: #ff7f0e"/>
     <use xlink:href="#m6c1343b012" x="183.211636" y="100.251608" style="fill: #ff7f0e; stroke: #ff7f0e"/>
     <use xlink:href="#m6c1343b012" x="189.761455" y="100.252576" style="fill: #ff7f0e; stroke: #ff7f0e"/>
     <use xlink:href="#m6c1343b012" x="196.311273" y="100.252415" style="fill: #ff7f0e; stroke: #ff7f0e"/>
     <use xlink:href="#m6c1343b012" x="202.861091" y="100.252738" style="fill: #ff7f0e; stroke: #ff7f0e"/>
     <use xlink:href="#m6c1343b012" x="209.410909" y="86.663336" style="fill: #ff7f0e; stroke: #ff7f0e"/>
     <use xlink:href="#m6c1343b012" x="215.960727" y="86.662368" style="fill: #ff7f0e; stroke: #ff7f0e"/>
     <use xlink:href="#m6c1343b012" x="222.510545" y="86.662529" style="fill: #ff7f0e; stroke: #ff7f0e"/>
     <use xlink:href="#m6c1343b012" x="229.060364" y="86.66269" style="fill: #ff7f0e; stroke: #ff7f0e"/>
     <use xlink:href="#m6c1343b012" x="235.610182" y="73.056425" style="fill: #ff7f0e; stroke: #ff7f0e"/>
     <use xlink:href="#m6c1343b012" x="242.16" y="73.056102" style="fill: #ff7f0e; stroke: #ff7f0e"/>
     <use xlink:href="#m6c1343b012" x="248.709818" y="73.056183" style="fill: #ff7f0e; stroke: #ff7f0e"/>
     <use xlink:href="#m6c1343b012" x="255.259636" y="73.056586" style="fill: #ff7f0e; stroke: #ff7f0e"/>
     <use xlink:href="#m6c1343b012" x="261.809455" y="59.386136" style="fill: #ff7f0e; stroke: #ff7f0e"/>
     <use xlink:href="#m6c1343b012" x="268.359273" y="59.386598" style="fill: #ff7f0e; stroke: #ff7f0e"/>
     <use xlink:href="#m6c1343b012" x="274.909091" y="59.385754" style="fill: #ff7f0e; stroke: #ff7f0e"/>
     <use xlink:href="#m6c1343b012" x="281.458909" y="59.385935" style="fill: #ff7f0e; stroke: #ff7f0e"/>
     <use xlink:href="#m6c1343b012" x="288.008727" y="59.386056" style="fill: #ff7f0e; stroke: #ff7f0e"/>
     <use xlink:href="#m6c1343b012" x="294.558545" y="59.385613" style="fill: #ff7f0e; stroke: #ff7f0e"/>
     <use xlink:href="#m6c1343b012" x="301.108364" y="45.803637" style="fill: #ff7f0e; stroke: #ff7f0e"/>
     <use xlink:href="#m6c1343b012" x="307.658182" y="45.803435" style="fill: #ff7f0e; stroke: #ff7f0e"/>
     <use xlink:href="#m6c1343b012" x="314.208" y="45.803938" style="fill: #ff7f0e; stroke: #ff7f0e"/>
     <use xlink:href="#m6c1343b012" x="320.757818" y="45.803737" style="fill: #ff7f0e; stroke: #ff7f0e"/>
     <use xlink:href="#m6c1343b012" x="327.307636" y="45.803737" style="fill: #ff7f0e; stroke: #ff7f0e"/>
     <use xlink:href="#m6c1343b012" x="333.857455" y="45.803536" style="fill: #ff7f0e; stroke: #ff7f0e"/>
     <use xlink:href="#m6c1343b012" x="340.407273" y="32.224499" style="fill: #ff7f0e; stroke: #ff7f0e"/>
     <use xlink:href="#m6c1343b012" x="346.957091" y="32.2247" style="fill: #ff7f0e; stroke: #ff7f0e"/>
     <use xlink:href="#m6c1343b012" x="353.506909" y="32.224247" style="fill: #ff7f0e; stroke: #ff7f0e"/>
     <use xlink:href="#m6c1343b012" x="360.056727" y="32.224499" style="fill: #ff7f0e; stroke: #ff7f0e"/>
     <use xlink:href="#m6c1343b012" x="366.606545" y="32.224952" style="fill: #ff7f0e; stroke: #ff7f0e"/>
     <use xlink:href="#m6c1343b012" x="373.156364" y="32.224347" style="fill: #ff7f0e; stroke: #ff7f0e"/>
     <use xlink:href="#m6c1343b012" x="379.706182" y="32.224398" style="fill: #ff7f0e; stroke: #ff7f0e"/>
     <use xlink:href="#m6c1343b012" x="386.256" y="18.575939" style="fill: #ff7f0e; stroke: #ff7f0e"/>
     <use xlink:href="#m6c1343b012" x="392.805818" y="18.574959" style="fill: #ff7f0e; stroke: #ff7f0e"/>
     <use xlink:href="#m6c1343b012" x="399.355636" y="18.575939" style="fill: #ff7f0e; stroke: #ff7f0e"/>
     <use xlink:href="#m6c1343b012" x="405.905455" y="18.575261" style="fill: #ff7f0e; stroke: #ff7f0e"/>
    </g>
   </g>
   <g id="patch_3">
    <path d="M 62.04 194.46 
L 62.04 9.72 
" style="fill: none; stroke: #444444; stroke-width: 0.8; stroke-linejoin: miter; stroke-linecap: square"/>
   </g>
   <g id="patch_4">
    <path d="M 422.28 194.46 
L 422.28 9.72 
" style="fill: none; stroke: #444444; stroke-width: 0.8; stroke-linejoin: miter; stroke-linecap: square"/>
   </g>
   <g id="patch_5">
    <path d="M 62.04 194.46 
L 422.28 194.46 
" style="fill: none; stroke: #444444; stroke-width: 0.8; stroke-linejoin: miter; stroke-linecap: square"/>
   </g>
   <g id="patch_6">
    <path d="M 62.04 9.72 
L 422.28 9.72 
" style="fill: none; stroke: #444444; stroke-width: 0.8; stroke-linejoin: miter; stroke-linecap: square"/>
   </g>
   <g id="legend_1">
    <g id="line2d_57">
     <path d="M 354.87 20.19875 
L 362.87 20.19875 
L 370.87 20.19875 
" style="fill: none; stroke: #1f77b4; stroke-width: 1.2; stroke-linecap: square"/>
     <g>
      <use xlink:href="#m329820e898" x="362.87" y="20.19875" style="fill: #1f77b4; stroke: #1f77b4"/>
     </g>
    </g>
    <g id="text_14">
     <text style="font: 8px 'DejaVu Sans', sans-serif; text-anchor: start" x="377.27" y="22.99875" transform="rotate(-0 377.27 22.99875)">varbloom</text>
    </g>
    <g id="line2d_58">
     <path d="M 354.87 31.94125 
L 362.87 31.94125 
L 370.87 31.94125 
" style="fill: none; stroke: #ff7f0e; stroke-width: 1.2; stroke-linecap: square"/>
     <g>
      <use xlink:href="#m6c1343b012" x="362.87" y="31.94125" style="fill: #ff7f0e; stroke: #ff7f0e"/>
     </g>
    </g>
    <g id="text_15">
     <text style="font: 8px 'DejaVu Sans', sans-serif; text-anchor: start" x="377.27" y="34.74125" transform="rotate(-0 377.27 34.74125)">cuckoo</text>
    </g>
   </g>
  </g>
 </g>
 <defs>
  <clipPath id="pf77613d259">
   <rect x="62.04" y="9.72" width="360.24" height="184.74"/>
  </clipPath>
 </defs>
</svg>
