<?xml version="1.0" encoding="utf-8" standalone="no"?>
<!DOCTYPE svg PUBLIC "-//W3C//DTD SVG 1.1//EN"
  "http://www.w3.org/Graphics/SVG/1.1/DTD/svg11.dtd">
<svg xmlns:xlink="http://www.w3.org/1999/xlink" width="432pt" height="230.4pt" viewBox="0 0 432 230.4" xmlns="http://www.w3.org/2000/svg" version="1.1">
 <metadata>
  <rdf:RDF xmlns:dc="http://purl.org/dc/elements/1.1/" xmlns:cc="http://creativecommons.org/ns#" xmlns:rdf="http://www.w3.org/1999/02/22-rdf-syntax-ns#">
   <cc:Work>
    <dc:type rdf:resource="http://purl.org/dc/dcmitype/StillImage"/>
    <dc:date>2025-03-23T15:15:05.168676</dc:date>
    <dc:format>image/svg+xml</dc:format>
    <dc:creator>
     <cc:Agent>
      <dc:title>Matplotlib v3.7.5, https://matplotlib.org/</dc:title>
     </cc:Agent>
    </dc:creator>
   </cc:Work>
  </rdf:RDF>
 </metadata>
 <defs>
  <style type="text/css">*{stroke-linejoin: round; stroke-linecap: butt}</style>
 </defs>
 <g id="figure_1">
  <g id="patch_1">
   <path d="M 0 230.4 
L 432 230.4 
L 432 0 
L 0 0 
z
" style="fill: #ffffff"/>
  </g>
  <g id="axes_1">
   <g id="patch_2">
    <path d="M 48.349059 194.46 
L 422.28 194.46 
L 422.28 9.72 
L 48.349059 9.72 
z
" style="fill: #ffffff"/>
   </g>
   <g id="matplotlib.axis_1">
    <g id="xtick_1">
     <g id="line2d_1">
      <path d="M 65.34592 194.46 
L 65.34592 9.72 
" clip-path="url(#p407502aa31)" style="fill: none; stroke: #b0b0b0; stroke-width: 0.8; stroke-linecap: square"/>
     </g>
     <g id="line2d_2">
      <defs>
       <path id="m3e690bc683" d="M 0 0 
L 0 -3.5 
" style="stroke: #000000; stroke-width: 0.8"/>
      </defs>
      <g>
       <use xlink:href="#m3e690bc683" x="65.34592" y="194.46" style="stroke: #000000; stroke-width: 0.8"/>
      </g>
     </g>
     <g id="text_1">
      <text style="font: 9px 'DejaVu Sans', sans-serif; text-anchor: middle" x="65.34592" y="204.798594" transform="rotate(-0 65.34592 204.798594)">30000</text>
     </g>
    </g>
    <g id="xtick_2">
     <g id="line2d_3">
      <path d="M 133.333364 194.46 
L 133.333364 9.72 
" clip-path="url(#p407502aa31)" style="fill: none; stroke: #b0b0b0; stroke-width: 0.8; stroke-linecap: square"/>
     </g>
     <g id="line2d_4">
      <g>
       <use xlink:href="#m3e690bc683" x="133.333364" y="194.46" style="stroke: #000000; stroke-width: 0.8"/>
      </g>
     </g>
     <g id="text_2">
      <text style="font: 9px 'DejaVu Sans', sans-serif; text-anchor: middle" x="133.333364" y="204.798594" transform="rotate(-0 133.333364 204.798594)">40000</text>
     </g>
    </g>
    <g id="xtick_3">
     <g id="line2d_5">
      <path d="M 201.320808 194.46 
L 201.320808 9.72 
" clip-path="url(#p407502aa31)" style="fill: none; stroke: #b0b0b0; stroke-width: 0.8; stroke-linecap: square"/>
     </g>
     <g id="line2d_6">
      <g>
       <use xlink:href="#m3e690bc683" x="201.320808" y="194.46" style="stroke: #000000; stroke-width: 0.8"/>
      </g>
     </g>
     <g id="text_3">
      <text style="font: 9px 'DejaVu Sans', sans-serif; text-anchor: middle" x="201.320808" y="204.798594" transform="rotate(-0 201.320808 204.798594)">50000</text>
     </g>
    </g>
    <g id="xtick_4">
     <g id="line2d_7">
      <path d="M 269.308252 194.46 
L 269.308252 9.72 
" clip-path="url(#p407502aa31)" style="fill: none; stroke: #b0b0b0; stroke-width: 0.8; stroke-linecap: square"/>
     </g>
     <g id="line2d_8">
      <g>
       <use xlink:href="#m3e690bc683" x="269.308252" y="194.46" style="stroke: #000000; stroke-width: 0.8"/>
      </g>
     </g>
     <g id="text_4">
      <text style="font: 9px 'DejaVu Sans', sans-serif; text-anchor: middle" x="269.308252" y="204.798594" transform="rotate(-0 269.308252 204.798594)">60000</text>
     </g>
    </g>
    <g id="xtick_5">
     <g id="line2d_9">
      <path d="M 337.295695 194.46 
L 337.295695 9.72 
" clip-path="url(#p407502aa31)" style="fill: none; stroke: #b0b0b0; stroke-width: 0.8; stroke-linecap: square"/>
     </g>
     <g id="line2d_10">
      <g>
       <use xlink:href="#m3e690bc683" x="337.295695" y="194.46" style="stroke: #000000; stroke-width: 0.8"/>
      </g>
     </g>
     <g id="text_5">
      <text style="font: 9px 'DejaVu Sans', sans-serif; text-anchor: middle" x="337.295695" y="204.798594" transform="rotate(-0 337.295695 204.798594)">70000</text>
     </g>
    </g>
    <g id="xtick_6">
     <g id="line2d_11">
      <path d="M 405.283139 194.46 
L 405.283139 9.72 
" clip-path="url(#p407502aa31)" style="fill: none; stroke: #b0b0b0; stroke-width: 0.8; stroke-linecap: square"/>
     </g>
     <g id="line2d_12">
      <g>
       <use xlink:href="#m3e690bc683" x="405.283139" y="194.46" style="stroke: #000000; stroke-width: 0.8"/>
      </g>
     </g>
     <g id="text_6">
      <text style="font: 9px 'DejaVu Sans', sans-serif; text-anchor: middle" x="405.283139" y="204.798594" transform="rotate(-0 405.283139 204.798594)">80000</text>
     </g>
    </g>
    <g id="text_7">
     <text style="font: 9px 'DejaVu Sans', sans-serif; text-anchor: middle" x="235.31453" y="217.508906" transform="rotate(-0 235.31453 217.508906)">Available Memory (bits)</text>
    </g>
   </g>
   <g id="matplotlib.axis_2">
    <g id="ytick_1">
     <g id="line2d_13">
      <path d="M 48.349059 194.46 
L 422.28 194.46 
" clip-path="url(#p407502aa31)" style="fill: none; stroke: #b0b0b0; stroke-width: 0.8; stroke-linecap: square"/>
     </g>
     <g id="line2d_14">
      <defs>
       <path id="mf41ee074d9" d="M 0 0 
L 3.5 0 
" style="stroke: #000000; stroke-width: 0.8"/>
      </defs>
      <g>
       <use xlink:href="#mf41ee074d9" x="48.349059" y="194.46" style="stroke: #000000; stroke-width: 0.8"/>
      </g>
     </g>
     <g id="text_8">
      <!-- $\mathdefault{10^{-3}}$ -->
      <g transform="translate(23.699059 197.879297)">
       <text>
        <tspan style="font: 9px 'DejaVu Sans'" x="0 5.726074" y="-0.8734375000000014">10</tspan>
        <tspan style="font: 6.3px 'DejaVu Sans'" x="11.538281 16.816992" y="-4.318750000000001">−3</tspan>
       </text>
      </g>
     </g>
    </g>
    <g id="ytick_2">
     <g id="line2d_15">
      <path d="M 48.349059 119.422202 
L 422.28 119.422202 
" clip-path="url(#p407502aa31)" style="fill: none; stroke: #b0b0b0; stroke-width: 0.8; stroke-linecap: square"/>
     </g>
     <g id="line2d_16">
      <g>
       <use xlink:href="#mf41ee074d9" x="48.349059" y="119.422202" style="stroke: #000000; stroke-width: 0.8"/>
      </g>
     </g>
     <g id="text_9">
      <!-- $\mathdefault{10^{-2}}$ -->
      <g transform="translate(23.699059 122.841499)">
       <text>
        <tspan style="font: 9px 'DejaVu Sans'" x="0 5.726074" y="-0.8734375000000014">10</tspan>
        <tspan style="font: 6.3px 'DejaVu Sans'" x="11.538281 16.816992" y="-4.318750000000001">−2</tspan>
       </text>
      </g>
     </g>
    </g>
    <g id="ytick_3">
     <g id="line2d_17">
      <path d="M 48.349059 44.384404 
L 422.28 44.384404 
" clip-path="url(#p407502aa31)" style="fill: none; stroke: #b0b0b0; stroke-width: 0.8; stroke-linecap: square"/>
     </g>
     <g id="line2d_18">
      <g>
       <use xlink:href="#mf41ee074d9" x="48.349059" y="44.384404" style="stroke: #000000; stroke-width: 0.8"/>
      </g>
     </g>
     <g id="text_10">
      <!-- $\mathdefault{10^{-1}}$ -->
      <g transform="translate(23.699059 47.803701)">
       <text>
        <tspan style="font: 9px 'DejaVu Sans'" x="0 5.726074" y="-0.9609375">10</tspan>
        <tspan style="font: 6.3px 'DejaVu Sans'" x="11.538281 16.816992" y="-4.40625">−1</tspan>
       </text>
      </g>
     </g>
    </g>
    <g id="ytick_4">
     <g id="line2d_19">
      <defs>
       <path id="m83faf32753" d="M 0 0 
L 2 0 
" style="stroke: #000000; stroke-width: 0.6"/>
      </defs>
      <g>
       <use xlink:href="#m83faf32753" x="48.349059" y="171.871372" style="stroke: #000000; stroke-width: 0.6"/>
      </g>
     </g>
    </g>
    <g id="ytick_5">
     <g id="line2d_20">
      <g>
       <use xlink:href="#m83faf32753" x="48.349059" y="158.657872" style="stroke: #000000; stroke-width: 0.6"/>
      </g>
     </g>
    </g>
    <g id="ytick_6">
     <g id="line2d_21">
      <g>
       <use xlink:href="#m83faf32753" x="48.349059" y="149.282744" style="stroke: #000000; stroke-width: 0.6"/>
      </g>
     </g>
    </g>
    <g id="ytick_7">
     <g id="line2d_22">
      <g>
       <use xlink:href="#m83faf32753" x="48.349059" y="142.01083" style="stroke: #000000; stroke-width: 0.6"/>
      </g>
     </g>
    </g>
    <g id="ytick_8">
     <g id="line2d_23">
      <g>
       <use xlink:href="#m83faf32753" x="48.349059" y="136.069244" style="stroke: #000000; stroke-width: 0.6"/>
      </g>
     </g>
    </g>
    <g id="ytick_9">
     <g id="line2d_24">
      <g>
       <use xlink:href="#m83faf32753" x="48.349059" y="131.045704" style="stroke: #000000; stroke-width: 0.6"/>
      </g>
     </g>
    </g>
    <g id="ytick_10">
     <g id="line2d_25">
      <g>
       <use xlink:href="#m83faf32753" x="48.349059" y="126.694116" style="stroke: #000000; stroke-width: 0.6"/>
      </g>
     </g>
    </g>
    <g id="ytick_11">
     <g id="line2d_26">
      <g>
       <use xlink:href="#m83faf32753" x="48.349059" y="122.855743" style="stroke: #000000; stroke-width: 0.6"/>
      </g>
     </g>
    </g>
    <g id="ytick_12">
     <g id="line2d_27">
      <g>
       <use xlink:href="#m83faf32753" x="48.349059" y="96.833574" style="stroke: #000000; stroke-width: 0.6"/>
      </g>
     </g>
    </g>
    <g id="ytick_13">
     <g id="line2d_28">
      <g>
       <use xlink:href="#m83faf32753" x="48.349059" y="83.620074" style="stroke: #000000; stroke-width: 0.6"/>
      </g>
     </g>
    </g>
    <g id="ytick_14">
     <g id="line2d_29">
      <g>
       <use xlink:href="#m83faf32753" x="48.349059" y="74.244946" style="stroke: #000000; stroke-width: 0.6"/>
      </g>
     </g>
    </g>
    <g id="ytick_15">
     <g id="line2d_30">
      <g>
       <use xlink:href="#m83faf32753" x="48.349059" y="66.973032" style="stroke: #000000; stroke-width: 0.6"/>
      </g>
     </g>
    </g>
    <g id="ytick_16">
     <g id="line2d_31">
      <g>
       <use xlink:href="#m83faf32753" x="48.349059" y="61.031446" style="stroke: #000000; stroke-width: 0.6"/>
      </g>
     </g>
    </g>
    <g id="ytick_17">
     <g id="line2d_32">
      <g>
       <use xlink:href="#m83faf32753" x="48.349059" y="56.007906" style="stroke: #000000; stroke-width: 0.6"/>
      </g>
     </g>
    </g>
    <g id="ytick_18">
     <g id="line2d_33">
      <g>
       <use xlink:href="#m83faf32753" x="48.349059" y="51.656318" style="stroke: #000000; stroke-width: 0.6"/>
      </g>
     </g>
    </g>
    <g id="ytick_19">
     <g id="line2d_34">
      <g>
       <use xlink:href="#m83faf32753" x="48.349059" y="47.817946" style="stroke: #000000; stroke-width: 0.6"/>
      </g>
     </g>
    </g>
    <g id="ytick_20">
     <g id="line2d_35">
      <g>
       <use xlink:href="#m83faf32753" x="48.349059" y="21.795776" style="stroke: #000000; stroke-width: 0.6"/>
      </g>
     </g>
    </g>
    <g id="text_11">
     <text style="font: 9px 'DejaVu Sans', sans-serif; text-anchor: middle" x="17.827341" y="102.09" transform="rotate(-90 17.827341 102.09)">False Positive Rate</text>
    </g>
   </g>
   <g id="line2d_36">
    <path clip-path="url(#p407502aa31)" style="fill: none; stroke: #1f77b4; stroke-width: 1.2; stroke-linecap: square"/>
    <defs>
     <path id="mdf1b473acc" d="M 0 2 
C 0.530406 2 1.03916 1.789267 1.414214 1.414214 
C 1.789267 1.03916 2 0.530406 2 0 
C 2 -0.530406 1.789267 -1.03916 1.414214 -1.414214 
C 1.03916 -1.789267 0.530406 -2 0 -2 
C -0.530406 -2 -1.03916 -1.789267 -1.414214 -1.414214 
C -1.789267 -1.03916 -2 -0.530406 -2 0 
C -2 0.530406 -1.789267 1.03916 -1.414214 1.414214 
C -1.03916 1.789267 -0.530406 2 0 2 
z
" style="stroke: #1f77b4"/>
    </defs>
    <g clip-path="url(#p407502aa31)"/>
   </g>
   <g id="line2d_37">
    <path d="M 65.34592 60.847299 
L 82.342781 66.590739 
L 99.339642 72.5465 
L 133.333364 82.69901 
L 150.330225 87.271599 
L 167.327086 91.494988 
L 184.323947 97.57519 
L 201.320808 101.99591 
L 218.317669 105.014225 
L 235.31453 107.99482 
L 252.311391 112.570114 
L 269.308252 116.405185 
L 286.305113 119.914733 
L 303.301973 123.848363 
L 320.298834 124.87217 
L 337.295695 129.947111 
L 354.292556 131.894657 
L 371.289417 133.611528 
L 388.286278 141.815883 
L 405.283139 138.668665 
" clip-path="url(#p407502aa31)" style="fill: none; stroke: #ff7f0e; stroke-width: 1.2; stroke-linecap: square"/>
    <defs>
     <path id="m4544b481c4" d="M 0 2 
C 0.530406 2 1.03916 1.789267 1.414214 1.414214 
C 1.789267 1.03916 2 0.530406 2 0 
C 2 -0.530406 1.789267 -1.03916 1.414214 -1.414214 
C 1.03916 -1.789267 0.530406 -2 0 -2 
C -0.530406 -2 -1.03916 -1.789267 -1.414214 -1.414214 
C -1.789267 -1.03916 -2 -0.530406 -2 0 
C -2 0.530406 -1.789267 1.03916 -1.414214 1.414214 
C -1.03916 1.789267 -0.530406 2 0 2 
z
" style="stroke: #ff7f0e"/>
    </defs>
    <g clip-path="url(#p407502aa31)">
     <use xlink:href="#m4544b481c4" x="65.34592" y="60.847299" style="fill: #ff7f0e; stroke: #ff7f0e"/>
     <use xlink:href="#m4544b481c4" x="82.342781" y="66.590739" style="fill: #ff7f0e; stroke: #ff7f0e"/>
     <use xlink:href="#m4544b481c4" x="99.339642" y="72.5465" style="fill: #ff7f0e; stroke: #ff7f0e"/>
     <use xlink:href="#m4544b481c4" x="133.333364" y="82.69901" style="fill: #ff7f0e; stroke: #ff7f0e"/>
     <use xlink:href="#m4544b481c4" x="150.330225" y="87.271599" style="fill: #ff7f0e; stroke: #ff7f0e"/>
     <use xlink:href="#m4544b481c4" x="167.327086" y="91.494988" style="fill: #ff7f0e; stroke: #ff7f0e"/>
     <use xlink:href="#m4544b481c4" x="184.323947" y="97.57519" style="fill: #ff7f0e; stroke: #ff7f0e"/>
     <use xlink:href="#m4544b481c4" x="201.320808" y="101.99591" style="fill: #ff7f0e; stroke: #ff7f0e"/>
     <use xlink:href="#m4544b481c4" x="218.317669" y="105.014225" style="fill: #ff7f0e; stroke: #ff7f0e"/>
     <use xlink:href="#m4544b481c4" x="235.31453" y="107.99482" style="fill: #ff7f0e; stroke: #ff7f0e"/>
     <use xlink:href="#m4544b481c4" x="252.311391" y="112.570114" style="fill: #ff7f0e; stroke: #ff7f0e"/>
     <use xlink:href="#m4544b481c4" x="269.308252" y="116.405185" style="fill: #ff7f0e; stroke: #ff7f0e"/>
     <use xlink:href="#m4544b481c4" x="286.305113" y="119.914733" style="fill: #ff7f0e; stroke: #ff7f0e"/>
     <use xlink:href="#m4544b481c4" x="303.301973" y="123.848363" style="fill: #ff7f0e; stroke: #ff7f0e"/>
     <use xlink:href="#m4544b481c4" x="320.298834" y="124.87217" style="fill: #ff7f0e; stroke: #ff7f0e"/>
     <use xlink:href="#m4544b481c4" x="337.295695" y="129.947111" style="fill: #ff7f0e; stroke: #ff7f0e"/>
     <use xlink:href="#m4544b481c4" x="354.292556" y="131.894657" style="fill: #ff7f0e; stroke: #ff7f0e"/>
     <use xlink:href="#m4544b481c4" x="371.289417" y="133.611528" style="fill: #ff7f0e; stroke: #ff7f0e"/>
     <use xlink:href="#m4544b481c4" x="388.286278" y="141.815883" style="fill: #ff7f0e; stroke: #ff7f0e"/>
     <use xlink:href="#m4544b481c4" x="405.283139" y="138.668665" style="fill: #ff7f0e; stroke: #ff7f0e"/>
    </g>
   </g>
   <g id="line2d_38">
    <path clip-path="url(#p407502aa31)" style="fill: none; stroke: #2ca02c; stroke-width: 1.2; stroke-linecap: square"/>
    <defs>
     <path id="mf93b42bc83" d="M 0 2 
C 0.530406 2 1.03916 1.789267 1.414214 1.414214 
C 1.789267 1.03916 2 0.530406 2 0 
C 2 -0.530406 1.789267 -1.03916 1.414214 -1.414214 
C 1.03916 -1.789267 0.530406 -2 0 -2 
C -0.530406 -2 -1.03916 -1.789267 -1.414214 -1.414214 
C -1.789267 -1.03916 -2 -0.530406 -2 0 
C -2 0.530406 -1.789267 1.03916 -1.414214 1.414214 
C -1.03916 1.789267 -0.530406 2 0 2 
z
" style="stroke: #2ca02c"/>
    </defs>
    <g clip-path="url(#p407502aa31)"/>
   </g>
   <g id="line2d_39">
    <path d="M 65.34592 62.024066 
L 82.342781 71.235357 
L 99.339642 77.923822 
L 133.333364 93.565022 
L 150.330225 99.497766 
L 167.327086 109.210601 
L 184.323947 118.553981 
L 201.320808 126.775689 
L 218.317669 132.279186 
L 235.31453 138.08567 
L 252.311391 151.472976 
L 269.308252 161.257293 
L 286.305113 166.754855 
L 303.301973 170.281374 
L 320.298834 174.236342 
L 337.295695 186.670797 
L 354.292556 201.731914 
L 371.289417 203.835128 
L 388.286278 215.149732 
L 405.283139 219.76591 
" clip-path="url(#p407502aa31)" style="fill: none; stroke: #d62728; stroke-width: 1.2; stroke-linecap: square"/>
    <defs>
     <path id="m424c6b136d" d="M 0 2 
C 0.530406 2 1.03916 1.789267 1.414214 1.414214 
C 1.789267 1.03916 2 0.530406 2 0 
C 2 -0.530406 1.789267 -1.03916 1.414214 -1.414214 
C 1.03916 -1.789267 0.530406 -2 0 -2 
C -0.530406 -2 -1.03916 -1.789267 -1.414214 -1.414214 
C -1.789267 -1.03916 -2 -0.530406 -2 0 
C -2 0.530406 -1.789267 1.03916 -1.414214 1.414214 
C -1.03916 1.789267 -0.530406 2 0 2 
z
" style="stroke: #d62728"/>
    </defs>
    <g clip-path="url(#p407502aa31)">
     <use xlink:href="#m424c6b136d" x="65.34592" y="62.024066" style="fill: #d62728; stroke: #d62728"/>
     <use xlink:href="#m424c6b136d" x="82.342781" y="71.235357" style="fill: #d62728; stroke: #d62728"/>
     <use xlink:href="#m424c6b136d" x="99.339642" y="77.923822" style="fill: #d62728; stroke: #d62728"/>
     <use xlink:href="#m424c6b136d" x="133.333364" y="93.565022" style="fill: #d62728; stroke: #d62728"/>
     <use xlink:href="#m424c6b136d" x="150.330225" y="99.497766" style="fill: #d62728; stroke: #d62728"/>
     <use xlink:href="#m424c6b136d" x="167.327086" y="109.210601" style="fill: #d62728; stroke: #d62728"/>
     <use xlink:href="#m424c6b136d" x="184.323947" y="118.553981" style="fill: #d62728; stroke: #d62728"/>
     <use xlink:href="#m424c6b136d" x="201.320808" y="126.775689" style="fill: #d62728; stroke: #d62728"/>
     <use xlink:href="#m424c6b136d" x="218.317669" y="132.279186" style="fill: #d62728; stroke: #d62728"/>
     <use xlink:href="#m424c6b136d" x="235.31453" y="138.08567" style="fill: #d62728; stroke: #d62728"/>
     <use xlink:href="#m424c6b136d" x="252.311391" y="151.472976" style="fill: #d62728; stroke: #d62728"/>
     <use xlink:href="#m424c6b136d" x="269.308252" y="161.257293" style="fill: #d62728; stroke: #d62728"/>
     <use xlink:href="#m424c6b136d" x="286.305113" y="166.754855" style="fill: #d62728; stroke: #d62728"/>
     <use xlink:href="#m424c6b136d" x="303.301973" y="170.281374" style="fill: #d62728; stroke: #d62728"/>
     <use xlink:href="#m424c6b136d" x="320.298834" y="174.236342" style="fill: #d62728; stroke: #d62728"/>
     <use xlink:href="#m424c6b136d" x="337.295695" y="186.670797" style="fill: #d62728; stroke: #d62728"/>
     <use xlink:href="#m424c6b136d" x="354.292556" y="201.731914" style="fill: #d62728; stroke: #d62728"/>
     <use xlink:href="#m424c6b136d" x="371.289417" y="203.835128" style="fill: #d62728; stroke: #d62728"/>
     <use xlink:href="#m424c6b136d" x="388.286278" y="215.149732" style="fill: #d62728; stroke: #d62728"/>
     <use xlink:href="#m424c6b136d" x="405.283139" y="219.76591" style="fill: #d62728; stroke: #d62728"/>
    </g>
   </g>
   <g id="line2d_40">
    <path d="M 65.34592 20.492574 
L 82.342781 39.151112 
L 99.339642 40.764016 
L 133.333364 61.695365 
L 150.330225 82.102575 
L 167.327086 83.028029 
L 184.323947 106.165279 
L 201.320808 104.618703 
L 218.317669 106.756421 
L 235.31453 127.982038 
L 252.311391 128.322836 
L 269.308252 147.383848 
L 286.305113 151.823394 
L 303.301973 170.908095 
L 320.298834 174.061604 
L 337.295695 193.496723 
L 354.292556 194.787525 
L 371.289417 212.778613 
L 388.286278 217.707004 
L 401.048105 231.4 
" clip-path="url(#p407502aa31)" style="fill: none; stroke: #9467bd; stroke-width: 1.2; stroke-linecap: square"/>
    <defs>
     <path id="mc9e579f130" d="M 0 2 
C 0.530406 2 1.03916 1.789267 1.414214 1.414214 
C 1.789267 1.03916 2 0.530406 2 0 
C 2 -0.530406 1.789267 -1.03916 1.414214 -1.414214 
C 1.03916 -1.789267 0.530406 -2 0 -2 
C -0.530406 -2 -1.03916 -1.789267 -1.414214 -1.414214 
C -1.789267 -1.03916 -2 -0.530406 -2 0 
C -2 0.530406 -1.789267 1.03916 -1.414214 1.414214 
C -1.03916 1.789267 -0.530406 2 0 2 
z
" style="stroke: #9467bd"/>
    </defs>
    <g clip-path="url(#p407502aa31)">
     <use xlink:href="#mc9e579f130" x="65.34592" y="20.492574" style="fill: #9467bd; stroke: #9467bd"/>
     <use xlink:href="#mc9e579f130" x="82.342781" y="39.151112" style="fill: #9467bd; stroke: #9467bd"/>
     <use xlink:href="#mc9e579f130" x="99.339642" y="40.764016" style="fill: #9467bd; stroke: #9467bd"/>
     <use xlink:href="#mc9e579f130" x="133.333364" y="61.695365" style="fill: #9467bd; stroke: #9467bd"/>
     <use xlink:href="#mc9e579f130" x="150.330225" y="82.102575" style="fill: #9467bd; stroke: #9467bd"/>
     <use xlink:href="#mc9e579f130" x="167.327086" y="83.028029" style="fill: #9467bd; stroke: #9467bd"/>
     <use xlink:href="#mc9e579f130" x="184.323947" y="106.165279" style="fill: #9467bd; stroke: #9467bd"/>
     <use xlink:href="#mc9e579f130" x="201.320808" y="104.618703" style="fill: #9467bd; stroke: #9467bd"/>
     <use xlink:href="#mc9e579f130" x="218.317669" y="106.756421" style="fill: #9467bd; stroke: #9467bd"/>
     <use xlink:href="#mc9e579f130" x="235.31453" y="127.982038" style="fill: #9467bd; stroke: #9467bd"/>
     <use xlink:href="#mc9e579f130" x="252.311391" y="128.322836" style="fill: #9467bd; stroke: #9467bd"/>
     <use xlink:href="#mc9e579f130" x="269.308252" y="147.383848" style="fill: #9467bd; stroke: #9467bd"/>
     <use xlink:href="#mc9e579f130" x="286.305113" y="151.823394" style="fill: #9467bd; stroke: #9467bd"/>
     <use xlink:href="#mc9e579f130" x="303.301973" y="170.908095" style="fill: #9467bd; stroke: #9467bd"/>
     <use xlink:href="#mc9e579f130" x="320.298834" y="174.061604" style="fill: #9467bd; stroke: #9467bd"/>
     <use xlink:href="#mc9e579f130" x="337.295695" y="193.496723" style="fill: #9467bd; stroke: #9467bd"/>
     <use xlink:href="#mc9e579f130" x="354.292556" y="194.787525" style="fill: #9467bd; stroke: #9467bd"/>
     <use xlink:href="#mc9e579f130" x="371.289417" y="212.778613" style="fill: #9467bd; stroke: #9467bd"/>
     <use xlink:href="#mc9e579f130" x="388.286278" y="217.707004" style="fill: #9467bd; stroke: #9467bd"/>
     <use xlink:href="#mc9e579f130" x="405.283139" y="235.944044" style="fill: #9467bd; stroke: #9467bd"/>
    </g>
   </g>
   <g id="patch_3">
    <path d="M 48.349059 194.46 
L 48.349059 9.72 
" style="fill: none; stroke: #444444; stroke-width: 0.8; stroke-linejoin: miter; stroke-linecap: square"/>
   </g>
   <g id="patch_4">
    <path d="M 422.28 194.46 
L 422.28 9.72 
" style="fill: none; stroke: #444444; stroke-width: 0.8; stroke-linejoin: miter; stroke-linecap: square"/>
   </g>
   <g id="patch_5">
    <path d="M 48.349059 194.46 
L 422.28 194.46 
" style="fill: none; stroke: #444444; stroke-width: 0.8; stroke-linejoin: miter; stroke-linecap: square"/>
   </g>
   <g id="patch_6">
    <path d="M 48.349059 9.72 
L 422.28 9.72 
" style="fill: none; stroke: #444444; stroke-width: 0.8; stroke-linejoin: miter; stroke-linecap: square"/>
   </g>
   <g id="legend_1">
    <g id="line2d_41">
     <path d="M 338.3 20.19875 
L 346.3 20.19875 
L 354.3 20.19875 
" style="fill: none; stroke: #1f77b4; stroke-width: 1.2; stroke-linecap: square"/>
     <g>
      <use xlink:href="#mdf1b473acc" x="346.3" y="20.19875" style="fill: #1f77b4; stroke: #1f77b4"/>
     </g>
    </g>
    <g id="text_12">
     <text style="font: 8px 'DejaVu Sans', sans-serif; text-anchor: start" x="360.7" y="22.99875" transform="rotate(-0 360.7 22.99875)">bloom_part_2</text>
    </g>
    <g id="line2d_42">
     <path d="M 338.3 32.16375 
L 346.3 32.16375 
L 354.3 32.16375 
" style="fill: none; stroke: #ff7f0e; stroke-width: 1.2; stroke-linecap: square"/>
     <g>
      <use xlink:href="#m4544b481c4" x="346.3" y="32.16375" style="fill: #ff7f0e; stroke: #ff7f0e"/>
     </g>
    </g>
    <g id="text_13">
     <text style="font: 8px 'DejaVu Sans', sans-serif; text-anchor: start" x="360.7" y="34.96375" transform="rotate(-0 360.7 34.96375)">bloom_part_3</text>
    </g>
    <g id="line2d_43">
     <path d="M 338.3 44.12875 
L 346.3 44.12875 
L 354.3 44.12875 
" style="fill: none; stroke: #2ca02c; stroke-width: 1.2; stroke-linecap: square"/>
     <g>
      <use xlink:href="#mf93b42bc83" x="346.3" y="44.12875" style="fill: #2ca02c; stroke: #2ca02c"/>
     </g>
    </g>
    <g id="text_14">
     <text style="font: 8px 'DejaVu Sans', sans-serif; text-anchor: start" x="360.7" y="46.92875" transform="rotate(-0 360.7 46.92875)">bloom_std</text>
    </g>
    <g id="line2d_44">
     <path d="M 338.3 56.09375 
L 346.3 56.09375 
L 354.3 56.09375 
" style="fill: none; stroke: #d62728; stroke-width: 1.2; stroke-linecap: square"/>
     <g>
      <use xlink:href="#m424c6b136d" x="346.3" y="56.09375" style="fill: #d62728; stroke: #d62728"/>
     </g>
    </g>
    <g id="text_15">
     <text style="font: 8px 'DejaVu Sans', sans-serif; text-anchor: start" x="360.7" y="58.89375" transform="rotate(-0 360.7 58.89375)">varbloom</text>
    </g>
    <g id="line2d_45">
     <path d="M 338.3 67.83625 
L 346.3 67.83625 
L 354.3 67.83625 
" style="fill: none; stroke: #9467bd; stroke-width: 1.2; stroke-linecap: square"/>
     <g>
      <use xlink:href="#mc9e579f130" x="346.3" y="67.83625" style="fill: #9467bd; stroke: #9467bd"/>
     </g>
    </g>
    <g id="text_16">
     <text style="font: 8px 'DejaVu Sans', sans-serif; text-anchor: start" x="360.7" y="70.63625" transform="rotate(-0 360.7 70.63625)">cuckoo</text>
    </g>
   </g>
  </g>
 </g>
 <defs>
  <clipPath id="p407502aa31">
   <rect x="48.349059" y="9.72" width="373.930941" height="184.74"/>
  </clipPath>
 </defs>
</svg>
